<?xml version="1.0" encoding="UTF-8" standalone="no"?>
<!DOCTYPE svg PUBLIC "-//W3C//DTD SVG 1.1//EN"
 "http://www.w3.org/Graphics/SVG/1.1/DTD/svg11.dtd">
<!-- Generated by graphviz version 8.1.0 (20230707.0739)
 -->
<!-- Title: snakemake_dag Pages: 1 -->
<svg width="1336pt" height="1484pt"
 viewBox="0.00 0.00 1336.00 1484.00" xmlns="http://www.w3.org/2000/svg" xmlns:xlink="http://www.w3.org/1999/xlink">
<g id="graph0" class="graph" transform="scale(1 1) rotate(0) translate(4 1480)">
<title>snakemake_dag</title>
<polygon fill="white" stroke="none" points="-4,4 -4,-1480 1332,-1480 1332,4 -4,4"/>
<!-- 0 -->
<g id="node1" class="node">
<title>0</title>
<path fill="none" stroke="#d8c356" stroke-width="2" d="M503.12,-36C503.12,-36 352.88,-36 352.88,-36 346.88,-36 340.88,-30 340.88,-24 340.88,-24 340.88,-12 340.88,-12 340.88,-6 346.88,0 352.88,0 352.88,0 503.12,0 503.12,0 509.12,0 515.12,-6 515.12,-12 515.12,-12 515.12,-24 515.12,-24 515.12,-30 509.12,-36 503.12,-36"/>
<text text-anchor="middle" x="428" y="-15.62" font-family="sans" font-size="10.00">LSCM1_QC_Assemblies_by_QUAST</text>
</g>
<!-- 1 -->
<g id="node2" class="node">
<title>1</title>
<path fill="none" stroke="#56d8c9" stroke-width="2" d="M214.12,-1404C214.12,-1404 51.88,-1404 51.88,-1404 45.88,-1404 39.88,-1398 39.88,-1392 39.88,-1392 39.88,-1380 39.88,-1380 39.88,-1374 45.88,-1368 51.88,-1368 51.88,-1368 214.12,-1368 214.12,-1368 220.12,-1368 226.12,-1374 226.12,-1380 226.12,-1380 226.12,-1392 226.12,-1392 226.12,-1398 220.12,-1404 214.12,-1404"/>
<text text-anchor="middle" x="133" y="-1383.62" font-family="sans" font-size="10.00">LSCM1_Assembly_LongRead_by_Flye</text>
</g>
<!-- 1&#45;&gt;0 -->
<g id="edge1" class="edge">
<title>1&#45;&gt;0</title>
<path fill="none" stroke="grey" stroke-width="2" d="M98.06,-1367.13C58.65,-1344.2 0,-1300.42 0,-1243 0,-1243 0,-1243 0,-161 0,-92.36 200.81,-51.13 327.33,-31.96"/>
<polygon fill="grey" stroke="grey" stroke-width="2" points="328.72,-35 338.1,-30.07 327.69,-28.07 328.72,-35"/>
</g>
<!-- 3 -->
<g id="node4" class="node">
<title>3</title>
<path fill="none" stroke="#8fd856" stroke-width="2" d="M266.5,-828C266.5,-828 79.5,-828 79.5,-828 73.5,-828 67.5,-822 67.5,-816 67.5,-816 67.5,-804 67.5,-804 67.5,-798 73.5,-792 79.5,-792 79.5,-792 266.5,-792 266.5,-792 272.5,-792 278.5,-798 278.5,-804 278.5,-804 278.5,-816 278.5,-816 278.5,-822 272.5,-828 266.5,-828"/>
<text text-anchor="middle" x="173" y="-807.62" font-family="sans" font-size="10.00">LSCM1_Consensus_Assembly_by_BCFtools</text>
</g>
<!-- 1&#45;&gt;3 -->
<g id="edge11" class="edge">
<title>1&#45;&gt;3</title>
<path fill="none" stroke="grey" stroke-width="2" d="M110.97,-1367.36C82.9,-1342.74 38,-1295.2 38,-1243 38,-1243 38,-1243 38,-953 38,-912.55 31.68,-895.54 57,-864 67.01,-851.53 80.59,-841.88 94.95,-834.45"/>
<polygon fill="grey" stroke="grey" stroke-width="2" points="97.03,-837.39 104.57,-829.96 94.03,-831.07 97.03,-837.39"/>
</g>
<!-- 6 -->
<g id="node7" class="node">
<title>6</title>
<path fill="none" stroke="#d87556" stroke-width="2" d="M261.25,-1044C261.25,-1044 96.75,-1044 96.75,-1044 90.75,-1044 84.75,-1038 84.75,-1032 84.75,-1032 84.75,-1020 84.75,-1020 84.75,-1014 90.75,-1008 96.75,-1008 96.75,-1008 261.25,-1008 261.25,-1008 267.25,-1008 273.25,-1014 273.25,-1020 273.25,-1020 273.25,-1032 273.25,-1032 273.25,-1038 267.25,-1044 261.25,-1044"/>
<text text-anchor="middle" x="179" y="-1023.62" font-family="sans" font-size="10.00">LSCM1_Norm_Assembly_by_BCFtools</text>
</g>
<!-- 1&#45;&gt;6 -->
<g id="edge15" class="edge">
<title>1&#45;&gt;6</title>
<path fill="none" stroke="grey" stroke-width="2" d="M120.63,-1367.09C103.87,-1341.03 76,-1290.55 76,-1243 76,-1243 76,-1243 76,-1169 76,-1128.55 71.86,-1113.17 95,-1080 103.01,-1068.52 114.38,-1059 126.18,-1051.34"/>
<polygon fill="grey" stroke="grey" stroke-width="2" points="128.27,-1053.97 135.05,-1045.82 124.67,-1047.96 128.27,-1053.97"/>
</g>
<!-- 7 -->
<g id="node8" class="node">
<title>7</title>
<path fill="none" stroke="#70d856" stroke-width="2" d="M291.5,-1116C291.5,-1116 116.5,-1116 116.5,-1116 110.5,-1116 104.5,-1110 104.5,-1104 104.5,-1104 104.5,-1092 104.5,-1092 104.5,-1086 110.5,-1080 116.5,-1080 116.5,-1080 291.5,-1080 291.5,-1080 297.5,-1080 303.5,-1086 303.5,-1092 303.5,-1092 303.5,-1104 303.5,-1104 303.5,-1110 297.5,-1116 291.5,-1116"/>
<text text-anchor="middle" x="204" y="-1095.62" font-family="sans" font-size="10.00">LSCM1_Mpileup_Assembly_by_BCFtools</text>
</g>
<!-- 1&#45;&gt;7 -->
<g id="edge17" class="edge">
<title>1&#45;&gt;7</title>
<path fill="none" stroke="grey" stroke-width="2" d="M134.58,-1367.13C136.37,-1349.05 139.74,-1320.38 145,-1296 157.97,-1235.9 180.18,-1167.52 193.34,-1129.19"/>
<polygon fill="grey" stroke="grey" stroke-width="2" points="197.62,-1129.54 197.59,-1118.95 191,-1127.25 197.62,-1129.54"/>
</g>
<!-- 9 -->
<g id="node10" class="node">
<title>9</title>
<path fill="none" stroke="#d8d356" stroke-width="2" d="M374.5,-1260C374.5,-1260 205.5,-1260 205.5,-1260 199.5,-1260 193.5,-1254 193.5,-1248 193.5,-1248 193.5,-1236 193.5,-1236 193.5,-1230 199.5,-1224 205.5,-1224 205.5,-1224 374.5,-1224 374.5,-1224 380.5,-1224 386.5,-1230 386.5,-1236 386.5,-1236 386.5,-1248 386.5,-1248 386.5,-1254 380.5,-1260 374.5,-1260"/>
<text text-anchor="middle" x="290" y="-1239.62" font-family="sans" font-size="10.00">LSCM1_View_ShortReads_by_Samtools</text>
</g>
<!-- 1&#45;&gt;9 -->
<g id="edge20" class="edge">
<title>1&#45;&gt;9</title>
<path fill="none" stroke="grey" stroke-width="2" d="M136.53,-1367.1C141.26,-1347.39 151.43,-1315.87 171,-1296 183.32,-1283.49 199.12,-1273.69 215.15,-1266.11"/>
<polygon fill="grey" stroke="grey" stroke-width="2" points="217.07,-1269.21 224.81,-1261.97 214.25,-1262.8 217.07,-1269.21"/>
</g>
<!-- 10 -->
<g id="node11" class="node">
<title>10</title>
<path fill="none" stroke="#9fd856" stroke-width="2" d="M572,-1332C572,-1332 400,-1332 400,-1332 394,-1332 388,-1326 388,-1320 388,-1320 388,-1308 388,-1308 388,-1302 394,-1296 400,-1296 400,-1296 572,-1296 572,-1296 578,-1296 584,-1302 584,-1308 584,-1308 584,-1320 584,-1320 584,-1326 578,-1332 572,-1332"/>
<text text-anchor="middle" x="486" y="-1311.62" font-family="sans" font-size="10.00">LSCM1_Map_ShortReads_by_minimap2</text>
</g>
<!-- 1&#45;&gt;10 -->
<g id="edge23" class="edge">
<title>1&#45;&gt;10</title>
<path fill="none" stroke="grey" stroke-width="2" d="M223.45,-1367.06C272.13,-1357.41 332.37,-1345.46 382.87,-1335.45"/>
<polygon fill="grey" stroke="grey" stroke-width="2" points="384.35,-1338.33 393.48,-1332.95 382.99,-1331.46 384.35,-1338.33"/>
</g>
<!-- 12 -->
<g id="node13" class="node">
<title>12</title>
<path fill="none" stroke="#5692d8" stroke-width="2" d="M357.62,-1332C357.62,-1332 192.38,-1332 192.38,-1332 186.38,-1332 180.38,-1326 180.38,-1320 180.38,-1320 180.38,-1308 180.38,-1308 180.38,-1302 186.38,-1296 192.38,-1296 192.38,-1296 357.62,-1296 357.62,-1296 363.62,-1296 369.62,-1302 369.62,-1308 369.62,-1308 369.62,-1320 369.62,-1320 369.62,-1326 363.62,-1332 357.62,-1332"/>
<text text-anchor="middle" x="275" y="-1311.62" font-family="sans" font-size="10.00">LSCM1_Index_Assembly_by_Samtools</text>
</g>
<!-- 1&#45;&gt;12 -->
<g id="edge24" class="edge">
<title>1&#45;&gt;12</title>
<path fill="none" stroke="grey" stroke-width="2" d="M169.2,-1367.15C186.89,-1358.43 208.41,-1347.82 227.42,-1338.46"/>
<polygon fill="grey" stroke="grey" stroke-width="2" points="229.44,-1341.37 236.87,-1333.81 226.35,-1335.09 229.44,-1341.37"/>
</g>
<!-- 13 -->
<g id="node14" class="node">
<title>13</title>
<path fill="none" stroke="#56d86b" stroke-width="2" d="M520.25,-1044C520.25,-1044 373.75,-1044 373.75,-1044 367.75,-1044 361.75,-1038 361.75,-1032 361.75,-1032 361.75,-1020 361.75,-1020 361.75,-1014 367.75,-1008 373.75,-1008 373.75,-1008 520.25,-1008 520.25,-1008 526.25,-1008 532.25,-1014 532.25,-1020 532.25,-1020 532.25,-1032 532.25,-1032 532.25,-1038 526.25,-1044 520.25,-1044"/>
<text text-anchor="middle" x="447" y="-1023.62" font-family="sans" font-size="10.00">LSCM1_Polish_Assembly_by_Pilon</text>
</g>
<!-- 1&#45;&gt;13 -->
<g id="edge27" class="edge">
<title>1&#45;&gt;13</title>
<path fill="none" stroke="grey" stroke-width="2" d="M226.92,-1379.99C353.58,-1372.35 566.47,-1356.11 593,-1332 622.93,-1304.8 612,-1283.45 612,-1243 612,-1243 612,-1243 612,-1169 612,-1124.68 599.15,-1110.51 567,-1080 553.78,-1067.45 537.1,-1057.57 520.41,-1049.91"/>
<polygon fill="grey" stroke="grey" stroke-width="2" points="521.47,-1046.7 510.9,-1045.96 518.7,-1053.13 521.47,-1046.7"/>
</g>
<!-- 2 -->
<g id="node3" class="node">
<title>2</title>
<path fill="none" stroke="#d8a456" stroke-width="2" d="M180,-1476C180,-1476 86,-1476 86,-1476 80,-1476 74,-1470 74,-1464 74,-1464 74,-1452 74,-1452 74,-1446 80,-1440 86,-1440 86,-1440 180,-1440 180,-1440 186,-1440 192,-1446 192,-1452 192,-1452 192,-1464 192,-1464 192,-1470 186,-1476 180,-1476"/>
<text text-anchor="middle" x="133" y="-1455.62" font-family="sans" font-size="10.00">Download_Long_Read</text>
</g>
<!-- 2&#45;&gt;1 -->
<g id="edge8" class="edge">
<title>2&#45;&gt;1</title>
<path fill="none" stroke="grey" stroke-width="2" d="M133,-1439.34C133,-1432.75 133,-1425.08 133,-1417.67"/>
<polygon fill="grey" stroke="grey" stroke-width="2" points="136.5,-1417.9 133,-1407.9 129.5,-1417.9 136.5,-1417.9"/>
</g>
<!-- 3&#45;&gt;0 -->
<g id="edge2" class="edge">
<title>3&#45;&gt;0</title>
<path fill="none" stroke="grey" stroke-width="2" d="M186.24,-791.22C204.18,-765.32 234,-715.03 234,-667 234,-667 234,-667 234,-161 234,-100.17 296.87,-62.58 351.02,-41.49"/>
<polygon fill="grey" stroke="grey" stroke-width="2" points="352.98,-44.75 361.13,-37.98 350.54,-38.19 352.98,-44.75"/>
</g>
<!-- 4 -->
<g id="node5" class="node">
<title>4</title>
<path fill="none" stroke="#d8b456" stroke-width="2" d="M241.88,-900C241.88,-900 78.12,-900 78.12,-900 72.12,-900 66.12,-894 66.12,-888 66.12,-888 66.12,-876 66.12,-876 66.12,-870 72.12,-864 78.12,-864 78.12,-864 241.88,-864 241.88,-864 247.88,-864 253.88,-870 253.88,-876 253.88,-876 253.88,-888 253.88,-888 253.88,-894 247.88,-900 241.88,-900"/>
<text text-anchor="middle" x="160" y="-879.62" font-family="sans" font-size="10.00">LSCM1_Index_Assembly_by_BCFtools</text>
</g>
<!-- 4&#45;&gt;3 -->
<g id="edge9" class="edge">
<title>4&#45;&gt;3</title>
<path fill="none" stroke="grey" stroke-width="2" d="M163.28,-863.34C164.5,-856.75 165.93,-849.08 167.3,-841.67"/>
<polygon fill="grey" stroke="grey" stroke-width="2" points="171.29,-841.37 169.68,-830.9 164.41,-840.09 171.29,-841.37"/>
</g>
<!-- 5 -->
<g id="node6" class="node">
<title>5</title>
<path fill="none" stroke="#d85656" stroke-width="2" d="M259.75,-972C259.75,-972 98.25,-972 98.25,-972 92.25,-972 86.25,-966 86.25,-960 86.25,-960 86.25,-948 86.25,-948 86.25,-942 92.25,-936 98.25,-936 98.25,-936 259.75,-936 259.75,-936 265.75,-936 271.75,-942 271.75,-948 271.75,-948 271.75,-960 271.75,-960 271.75,-966 265.75,-972 259.75,-972"/>
<text text-anchor="middle" x="179" y="-951.62" font-family="sans" font-size="10.00">LSCM1_Filter_Assembly_by_BCFtools</text>
</g>
<!-- 5&#45;&gt;3 -->
<g id="edge10" class="edge">
<title>5&#45;&gt;3</title>
<path fill="none" stroke="grey" stroke-width="2" d="M224.84,-935.01C239.74,-926.72 254.59,-915.25 263,-900 270.73,-885.99 270.94,-877.89 263,-864 256.18,-852.07 245.51,-842.55 233.86,-835.08"/>
<polygon fill="grey" stroke="grey" stroke-width="2" points="235.39,-831.75 224.98,-829.77 231.88,-837.81 235.39,-831.75"/>
</g>
<!-- 5&#45;&gt;4 -->
<g id="edge12" class="edge">
<title>5&#45;&gt;4</title>
<path fill="none" stroke="grey" stroke-width="2" d="M174.21,-935.34C172.4,-928.67 170.28,-920.89 168.25,-913.39"/>
<polygon fill="grey" stroke="grey" stroke-width="2" points="170.86,-911.64 164.86,-902.9 164.1,-913.47 170.86,-911.64"/>
</g>
<!-- 6&#45;&gt;5 -->
<g id="edge13" class="edge">
<title>6&#45;&gt;5</title>
<path fill="none" stroke="grey" stroke-width="2" d="M179,-1007.34C179,-1000.75 179,-993.08 179,-985.67"/>
<polygon fill="grey" stroke="grey" stroke-width="2" points="182.5,-985.9 179,-975.9 175.5,-985.9 182.5,-985.9"/>
</g>
<!-- 7&#45;&gt;6 -->
<g id="edge14" class="edge">
<title>7&#45;&gt;6</title>
<path fill="none" stroke="grey" stroke-width="2" d="M197.69,-1079.34C195.28,-1072.59 192.46,-1064.69 189.75,-1057.11"/>
<polygon fill="grey" stroke="grey" stroke-width="2" points="193.05,-1055.14 186.39,-1046.9 186.46,-1057.5 193.05,-1055.14"/>
</g>
<!-- 8 -->
<g id="node9" class="node">
<title>8</title>
<path fill="none" stroke="#5663d8" stroke-width="2" d="M401.75,-1188C401.75,-1188 234.25,-1188 234.25,-1188 228.25,-1188 222.25,-1182 222.25,-1176 222.25,-1176 222.25,-1164 222.25,-1164 222.25,-1158 228.25,-1152 234.25,-1152 234.25,-1152 401.75,-1152 401.75,-1152 407.75,-1152 413.75,-1158 413.75,-1164 413.75,-1164 413.75,-1176 413.75,-1176 413.75,-1182 407.75,-1188 401.75,-1188"/>
<text text-anchor="middle" x="318" y="-1167.62" font-family="sans" font-size="10.00">LSCM1_Sort_ShortReads_by_Samtools</text>
</g>
<!-- 8&#45;&gt;7 -->
<g id="edge16" class="edge">
<title>8&#45;&gt;7</title>
<path fill="none" stroke="grey" stroke-width="2" d="M288.94,-1151.15C275.27,-1142.76 258.76,-1132.62 243.94,-1123.52"/>
<polygon fill="grey" stroke="grey" stroke-width="2" points="245.36,-1120.06 235.01,-1117.81 241.7,-1126.03 245.36,-1120.06"/>
</g>
<!-- 8&#45;&gt;13 -->
<g id="edge26" class="edge">
<title>8&#45;&gt;13</title>
<path fill="none" stroke="grey" stroke-width="2" d="M320.82,-1151.07C324.68,-1131.62 333.26,-1100.61 351,-1080 361.09,-1068.28 374.45,-1058.66 387.98,-1050.98"/>
<polygon fill="grey" stroke="grey" stroke-width="2" points="390.11,-1053.76 397.32,-1046 386.84,-1047.57 390.11,-1053.76"/>
</g>
<!-- 14 -->
<g id="node15" class="node">
<title>14</title>
<path fill="none" stroke="#5682d8" stroke-width="2" d="M546.12,-1116C546.12,-1116 371.88,-1116 371.88,-1116 365.88,-1116 359.88,-1110 359.88,-1104 359.88,-1104 359.88,-1092 359.88,-1092 359.88,-1086 365.88,-1080 371.88,-1080 371.88,-1080 546.12,-1080 546.12,-1080 552.12,-1080 558.12,-1086 558.12,-1092 558.12,-1092 558.12,-1104 558.12,-1104 558.12,-1110 552.12,-1116 546.12,-1116"/>
<text text-anchor="middle" x="459" y="-1095.62" font-family="sans" font-size="10.00">LSCM1_Index_ShortReads_by_Samtools</text>
</g>
<!-- 8&#45;&gt;14 -->
<g id="edge28" class="edge">
<title>8&#45;&gt;14</title>
<path fill="none" stroke="grey" stroke-width="2" d="M353.95,-1151.15C371.43,-1142.47 392.68,-1131.92 411.48,-1122.59"/>
<polygon fill="grey" stroke="grey" stroke-width="2" points="413.72,-1125.39 421.12,-1117.81 410.61,-1119.12 413.72,-1125.39"/>
</g>
<!-- 9&#45;&gt;8 -->
<g id="edge18" class="edge">
<title>9&#45;&gt;8</title>
<path fill="none" stroke="grey" stroke-width="2" d="M297.07,-1223.34C299.8,-1216.51 303,-1208.5 306.07,-1200.83"/>
<polygon fill="grey" stroke="grey" stroke-width="2" points="309.37,-1201.49 309.84,-1190.9 302.88,-1198.89 309.37,-1201.49"/>
</g>
<!-- 10&#45;&gt;9 -->
<g id="edge19" class="edge">
<title>10&#45;&gt;9</title>
<path fill="none" stroke="grey" stroke-width="2" d="M435.78,-1295.06C410.3,-1285.97 379.13,-1274.83 352.15,-1265.2"/>
<polygon fill="grey" stroke="grey" stroke-width="2" points="352.68,-1261.96 342.09,-1261.89 350.33,-1268.55 352.68,-1261.96"/>
</g>
<!-- 11 -->
<g id="node12" class="node">
<title>11</title>
<path fill="none" stroke="#afd856" stroke-width="2" stroke-dasharray="5,2" d="M879.12,-1404C879.12,-1404 782.88,-1404 782.88,-1404 776.88,-1404 770.88,-1398 770.88,-1392 770.88,-1392 770.88,-1380 770.88,-1380 770.88,-1374 776.88,-1368 782.88,-1368 782.88,-1368 879.12,-1368 879.12,-1368 885.12,-1368 891.12,-1374 891.12,-1380 891.12,-1380 891.12,-1392 891.12,-1392 891.12,-1398 885.12,-1404 879.12,-1404"/>
<text text-anchor="middle" x="831" y="-1383.62" font-family="sans" font-size="10.00">Download_Short_Read</text>
</g>
<!-- 11&#45;&gt;10 -->
<g id="edge22" class="edge">
<title>11&#45;&gt;10</title>
<path fill="none" stroke="grey" stroke-width="2" d="M770.12,-1372.65C719.46,-1362.37 646.29,-1347.52 586.9,-1335.47"/>
<polygon fill="grey" stroke="grey" stroke-width="2" points="586.94,-1331.5 576.45,-1332.95 585.55,-1338.36 586.94,-1331.5"/>
</g>
<!-- 22 -->
<g id="node23" class="node">
<title>22</title>
<path fill="none" stroke="#d88556" stroke-width="2" d="M932,-972C932,-972 730,-972 730,-972 724,-972 718,-966 718,-960 718,-960 718,-948 718,-948 718,-942 724,-936 730,-936 730,-936 932,-936 932,-936 938,-936 944,-942 944,-948 944,-948 944,-960 944,-960 944,-966 938,-972 932,-972"/>
<text text-anchor="middle" x="831" y="-951.62" font-family="sans" font-size="10.00">LSCM1_Map_PolishedAssembly_by_minimap2</text>
</g>
<!-- 11&#45;&gt;22 -->
<g id="edge42" class="edge">
<title>11&#45;&gt;22</title>
<path fill="none" stroke="grey" stroke-width="2" d="M831,-1367.07C831,-1340.13 831,-1287.62 831,-1243 831,-1243 831,-1243 831,-1097 831,-1058.65 831,-1014.48 831,-985.72"/>
<polygon fill="grey" stroke="grey" stroke-width="2" points="834.5,-985.93 831,-975.93 827.5,-985.93 834.5,-985.93"/>
</g>
<!-- 26 -->
<g id="node27" class="node">
<title>26</title>
<path fill="none" stroke="#56b1d8" stroke-width="2" d="M993,-1332C993,-1332 887,-1332 887,-1332 881,-1332 875,-1326 875,-1320 875,-1320 875,-1308 875,-1308 875,-1302 881,-1296 887,-1296 887,-1296 993,-1296 993,-1296 999,-1296 1005,-1302 1005,-1308 1005,-1308 1005,-1320 1005,-1320 1005,-1326 999,-1332 993,-1332"/>
<text text-anchor="middle" x="940" y="-1311.62" font-family="sans" font-size="10.00">LSCM1_aggregate_reads</text>
</g>
<!-- 11&#45;&gt;26 -->
<g id="edge49" class="edge">
<title>11&#45;&gt;26</title>
<path fill="none" stroke="grey" stroke-width="2" d="M858.79,-1367.15C871.73,-1358.84 887.34,-1348.82 901.4,-1339.79"/>
<polygon fill="grey" stroke="grey" stroke-width="2" points="903.74,-1342.16 910.26,-1333.81 899.96,-1336.27 903.74,-1342.16"/>
</g>
<!-- 12&#45;&gt;9 -->
<g id="edge21" class="edge">
<title>12&#45;&gt;9</title>
<path fill="none" stroke="grey" stroke-width="2" d="M278.79,-1295.34C280.21,-1288.67 281.88,-1280.89 283.49,-1273.39"/>
<polygon fill="grey" stroke="grey" stroke-width="2" points="287.49,-1273.41 286.16,-1262.9 280.65,-1271.95 287.49,-1273.41"/>
</g>
<!-- 13&#45;&gt;0 -->
<g id="edge3" class="edge">
<title>13&#45;&gt;0</title>
<path fill="none" stroke="grey" stroke-width="2" d="M414.29,-1007.14C376.67,-983.92 320,-939.56 320,-883 320,-883 320,-883 320,-161 320,-112.72 360.04,-70.59 391.36,-45.02"/>
<polygon fill="grey" stroke="grey" stroke-width="2" points="393.88,-46.92 399.58,-37.99 389.55,-41.42 393.88,-46.92"/>
</g>
<!-- 15 -->
<g id="node16" class="node">
<title>15</title>
<path fill="none" stroke="#d86656" stroke-width="2" d="M612,-468C612,-468 386,-468 386,-468 380,-468 374,-462 374,-456 374,-456 374,-444 374,-444 374,-438 380,-432 386,-432 386,-432 612,-432 612,-432 618,-432 624,-438 624,-444 624,-444 624,-456 624,-456 624,-462 618,-468 612,-468"/>
<text text-anchor="middle" x="499" y="-447.62" font-family="sans" font-size="10.00">LSCM1_Consensus_PolishedAssembly_by_BCFtools</text>
</g>
<!-- 13&#45;&gt;15 -->
<g id="edge31" class="edge">
<title>13&#45;&gt;15</title>
<path fill="none" stroke="grey" stroke-width="2" d="M426.36,-1007.07C400.07,-982.12 358,-934.21 358,-883 358,-883 358,-883 358,-593 358,-552.55 351.39,-535.31 377,-504 387.37,-491.32 401.36,-481.6 416.16,-474.17"/>
<polygon fill="grey" stroke="grey" stroke-width="2" points="417.97,-477.28 425.6,-469.93 415.05,-470.92 417.97,-477.28"/>
</g>
<!-- 18 -->
<g id="node19" class="node">
<title>18</title>
<path fill="none" stroke="#56c1d8" stroke-width="2" d="M623.75,-684C623.75,-684 420.25,-684 420.25,-684 414.25,-684 408.25,-678 408.25,-672 408.25,-672 408.25,-660 408.25,-660 408.25,-654 414.25,-648 420.25,-648 420.25,-648 623.75,-648 623.75,-648 629.75,-648 635.75,-654 635.75,-660 635.75,-660 635.75,-672 635.75,-672 635.75,-678 629.75,-684 623.75,-684"/>
<text text-anchor="middle" x="522" y="-663.62" font-family="sans" font-size="10.00">LSCM1_Norm_PolishedAssembly_by_BCFtools</text>
</g>
<!-- 13&#45;&gt;18 -->
<g id="edge35" class="edge">
<title>13&#45;&gt;18</title>
<path fill="none" stroke="grey" stroke-width="2" d="M436.18,-1007.35C421.21,-981.2 396,-930.15 396,-883 396,-883 396,-883 396,-809 396,-768.55 390.18,-751.94 415,-720 424.49,-707.79 437.54,-698.19 451.26,-690.72"/>
<polygon fill="grey" stroke="grey" stroke-width="2" points="453.49,-693.53 460.89,-685.94 450.37,-687.26 453.49,-693.53"/>
</g>
<!-- 19 -->
<g id="node20" class="node">
<title>19</title>
<path fill="none" stroke="#80d856" stroke-width="2" d="M650,-756C650,-756 436,-756 436,-756 430,-756 424,-750 424,-744 424,-744 424,-732 424,-732 424,-726 430,-720 436,-720 436,-720 650,-720 650,-720 656,-720 662,-726 662,-732 662,-732 662,-744 662,-744 662,-750 656,-756 650,-756"/>
<text text-anchor="middle" x="543" y="-735.62" font-family="sans" font-size="10.00">LSCM1_Mpileup_PolishedAssembly_by_BCFtools</text>
</g>
<!-- 13&#45;&gt;19 -->
<g id="edge37" class="edge">
<title>13&#45;&gt;19</title>
<path fill="none" stroke="grey" stroke-width="2" d="M442.85,-1007.09C434.32,-965.84 418.89,-862.3 460,-792 466.74,-780.48 477.08,-771.06 488.21,-763.53"/>
<polygon fill="grey" stroke="grey" stroke-width="2" points="490.34,-766.09 497.02,-757.88 486.67,-760.13 490.34,-766.09"/>
</g>
<!-- 21 -->
<g id="node22" class="node">
<title>21</title>
<path fill="none" stroke="#bed856" stroke-width="2" d="M692.5,-900C692.5,-900 493.5,-900 493.5,-900 487.5,-900 481.5,-894 481.5,-888 481.5,-888 481.5,-876 481.5,-876 481.5,-870 487.5,-864 493.5,-864 493.5,-864 692.5,-864 692.5,-864 698.5,-864 704.5,-870 704.5,-876 704.5,-876 704.5,-888 704.5,-888 704.5,-894 698.5,-900 692.5,-900"/>
<text text-anchor="middle" x="593" y="-879.62" font-family="sans" font-size="10.00">LSCM1_View_PolishedAssembly_by_Samtools</text>
</g>
<!-- 13&#45;&gt;21 -->
<g id="edge40" class="edge">
<title>13&#45;&gt;21</title>
<path fill="none" stroke="grey" stroke-width="2" d="M452.06,-1007.31C458.42,-987.79 470.97,-956.43 491,-936 502.69,-924.08 517.63,-914.28 532.46,-906.5"/>
<polygon fill="grey" stroke="grey" stroke-width="2" points="534.29,-909.51 541.71,-901.95 531.19,-903.24 534.29,-909.51"/>
</g>
<!-- 13&#45;&gt;22 -->
<g id="edge43" class="edge">
<title>13&#45;&gt;22</title>
<path fill="none" stroke="grey" stroke-width="2" d="M533.18,-1009.29C588.4,-999.22 660.61,-986.06 720.09,-975.22"/>
<polygon fill="grey" stroke="grey" stroke-width="2" points="721.37,-978.18 730.58,-972.94 720.12,-971.29 721.37,-978.18"/>
</g>
<!-- 23 -->
<g id="node24" class="node">
<title>23</title>
<path fill="none" stroke="#56d89a" stroke-width="2" d="M688.25,-972C688.25,-972 511.75,-972 511.75,-972 505.75,-972 499.75,-966 499.75,-960 499.75,-960 499.75,-948 499.75,-948 499.75,-942 505.75,-936 511.75,-936 511.75,-936 688.25,-936 688.25,-936 694.25,-936 700.25,-942 700.25,-948 700.25,-948 700.25,-960 700.25,-960 700.25,-966 694.25,-972 688.25,-972"/>
<text text-anchor="middle" x="600" y="-951.62" font-family="sans" font-size="10.00">LSCM1_index_PolishedAssembly_LSCM1</text>
</g>
<!-- 13&#45;&gt;23 -->
<g id="edge44" class="edge">
<title>13&#45;&gt;23</title>
<path fill="none" stroke="grey" stroke-width="2" d="M486,-1007.15C505.17,-998.38 528.51,-987.71 549.07,-978.3"/>
<polygon fill="grey" stroke="grey" stroke-width="2" points="551.16,-981.28 558.8,-973.93 548.25,-974.91 551.16,-981.28"/>
</g>
<!-- 14&#45;&gt;13 -->
<g id="edge25" class="edge">
<title>14&#45;&gt;13</title>
<path fill="none" stroke="grey" stroke-width="2" d="M455.97,-1079.34C454.84,-1072.75 453.53,-1065.08 452.26,-1057.67"/>
<polygon fill="grey" stroke="grey" stroke-width="2" points="455.21,-1056.17 450.07,-1046.9 448.31,-1057.35 455.21,-1056.17"/>
</g>
<!-- 15&#45;&gt;0 -->
<g id="edge4" class="edge">
<title>15&#45;&gt;0</title>
<path fill="none" stroke="grey" stroke-width="2" d="M483.24,-431.15C462.33,-405.55 428,-356.06 428,-307 428,-307 428,-307 428,-161 428,-122.65 428,-78.48 428,-49.72"/>
<polygon fill="grey" stroke="grey" stroke-width="2" points="431.5,-49.93 428,-39.93 424.5,-49.93 431.5,-49.93"/>
</g>
<!-- 28 -->
<g id="node29" class="node">
<title>28</title>
<path fill="none" stroke="#ced856" stroke-width="2" d="M1225.62,-396C1225.62,-396 1012.38,-396 1012.38,-396 1006.38,-396 1000.38,-390 1000.38,-384 1000.38,-384 1000.38,-372 1000.38,-372 1000.38,-366 1006.38,-360 1012.38,-360 1012.38,-360 1225.62,-360 1225.62,-360 1231.62,-360 1237.62,-366 1237.62,-372 1237.62,-372 1237.62,-384 1237.62,-384 1237.62,-390 1231.62,-396 1225.62,-396"/>
<text text-anchor="middle" x="1119" y="-375.62" font-family="sans" font-size="10.00">LSCM1_Sort_PolishedAssembly_by_funannotate</text>
</g>
<!-- 15&#45;&gt;28 -->
<g id="edge51" class="edge">
<title>15&#45;&gt;28</title>
<path fill="none" stroke="grey" stroke-width="2" d="M624.84,-434.79C730.02,-422.92 879.58,-406.03 986.56,-393.95"/>
<polygon fill="grey" stroke="grey" stroke-width="2" points="986.85,-397.1 996.39,-392.5 986.06,-390.15 986.85,-397.1"/>
</g>
<!-- 16 -->
<g id="node17" class="node">
<title>16</title>
<path fill="none" stroke="#5673d8" stroke-width="2" d="M600.38,-540C600.38,-540 397.62,-540 397.62,-540 391.62,-540 385.62,-534 385.62,-528 385.62,-528 385.62,-516 385.62,-516 385.62,-510 391.62,-504 397.62,-504 397.62,-504 600.38,-504 600.38,-504 606.38,-504 612.38,-510 612.38,-516 612.38,-516 612.38,-528 612.38,-528 612.38,-534 606.38,-540 600.38,-540"/>
<text text-anchor="middle" x="499" y="-519.62" font-family="sans" font-size="10.00">LSCM1_Index_PolishedAssembly_by_BCFtools</text>
</g>
<!-- 16&#45;&gt;15 -->
<g id="edge29" class="edge">
<title>16&#45;&gt;15</title>
<path fill="none" stroke="grey" stroke-width="2" d="M499,-503.34C499,-496.75 499,-489.08 499,-481.67"/>
<polygon fill="grey" stroke="grey" stroke-width="2" points="502.5,-481.9 499,-471.9 495.5,-481.9 502.5,-481.9"/>
</g>
<!-- 17 -->
<g id="node18" class="node">
<title>17</title>
<path fill="none" stroke="#56d87b" stroke-width="2" d="M622.25,-612C622.25,-612 421.75,-612 421.75,-612 415.75,-612 409.75,-606 409.75,-600 409.75,-600 409.75,-588 409.75,-588 409.75,-582 415.75,-576 421.75,-576 421.75,-576 622.25,-576 622.25,-576 628.25,-576 634.25,-582 634.25,-588 634.25,-588 634.25,-600 634.25,-600 634.25,-606 628.25,-612 622.25,-612"/>
<text text-anchor="middle" x="522" y="-591.62" font-family="sans" font-size="10.00">LSCM1_Filter_PolishedAssembly_by_BCFtools</text>
</g>
<!-- 17&#45;&gt;15 -->
<g id="edge30" class="edge">
<title>17&#45;&gt;15</title>
<path fill="none" stroke="grey" stroke-width="2" d="M579.45,-575.08C595.73,-567.04 611.58,-555.72 621,-540 629.22,-526.27 629.77,-517.38 621,-504 612.79,-491.48 600.91,-481.9 587.75,-474.58"/>
<polygon fill="grey" stroke="grey" stroke-width="2" points="588.95,-471.27 578.44,-469.94 585.83,-477.53 588.95,-471.27"/>
</g>
<!-- 17&#45;&gt;16 -->
<g id="edge32" class="edge">
<title>17&#45;&gt;16</title>
<path fill="none" stroke="grey" stroke-width="2" d="M516.2,-575.34C513.98,-568.59 511.39,-560.69 508.89,-553.11"/>
<polygon fill="grey" stroke="grey" stroke-width="2" points="511.33,-551.31 504.88,-542.9 504.68,-553.49 511.33,-551.31"/>
</g>
<!-- 18&#45;&gt;17 -->
<g id="edge33" class="edge">
<title>18&#45;&gt;17</title>
<path fill="none" stroke="grey" stroke-width="2" d="M522,-647.34C522,-640.75 522,-633.08 522,-625.67"/>
<polygon fill="grey" stroke="grey" stroke-width="2" points="525.5,-625.9 522,-615.9 518.5,-625.9 525.5,-625.9"/>
</g>
<!-- 19&#45;&gt;18 -->
<g id="edge34" class="edge">
<title>19&#45;&gt;18</title>
<path fill="none" stroke="grey" stroke-width="2" d="M537.7,-719.34C535.68,-712.59 533.31,-704.69 531.03,-697.11"/>
<polygon fill="grey" stroke="grey" stroke-width="2" points="533.6,-695.47 527.37,-686.9 526.89,-697.49 533.6,-695.47"/>
</g>
<!-- 20 -->
<g id="node21" class="node">
<title>20</title>
<path fill="none" stroke="#56d8a9" stroke-width="2" d="M678.75,-828C678.75,-828 481.25,-828 481.25,-828 475.25,-828 469.25,-822 469.25,-816 469.25,-816 469.25,-804 469.25,-804 469.25,-798 475.25,-792 481.25,-792 481.25,-792 678.75,-792 678.75,-792 684.75,-792 690.75,-798 690.75,-804 690.75,-804 690.75,-816 690.75,-816 690.75,-822 684.75,-828 678.75,-828"/>
<text text-anchor="middle" x="580" y="-807.62" font-family="sans" font-size="10.00">LSCM1_Sort_PolishedAssembly_by_Samtools</text>
</g>
<!-- 20&#45;&gt;19 -->
<g id="edge36" class="edge">
<title>20&#45;&gt;19</title>
<path fill="none" stroke="grey" stroke-width="2" d="M570.66,-791.34C566.97,-784.34 562.62,-776.12 558.48,-768.28"/>
<polygon fill="grey" stroke="grey" stroke-width="2" points="561.23,-766.11 553.46,-758.9 555.04,-769.38 561.23,-766.11"/>
</g>
<!-- 21&#45;&gt;20 -->
<g id="edge38" class="edge">
<title>21&#45;&gt;20</title>
<path fill="none" stroke="grey" stroke-width="2" d="M589.72,-863.34C588.5,-856.75 587.07,-849.08 585.7,-841.67"/>
<polygon fill="grey" stroke="grey" stroke-width="2" points="588.59,-840.09 583.32,-830.9 581.71,-841.37 588.59,-840.09"/>
</g>
<!-- 22&#45;&gt;21 -->
<g id="edge39" class="edge">
<title>22&#45;&gt;21</title>
<path fill="none" stroke="grey" stroke-width="2" d="M770.02,-935.06C738.39,-925.76 699.52,-914.33 666.27,-904.55"/>
<polygon fill="grey" stroke="grey" stroke-width="2" points="666.4,-900.35 655.82,-900.89 664.43,-907.07 666.4,-900.35"/>
</g>
<!-- 23&#45;&gt;21 -->
<g id="edge41" class="edge">
<title>23&#45;&gt;21</title>
<path fill="none" stroke="grey" stroke-width="2" d="M598.23,-935.34C597.58,-928.75 596.81,-921.08 596.07,-913.67"/>
<polygon fill="grey" stroke="grey" stroke-width="2" points="599.27,-913.5 594.79,-903.9 592.3,-914.2 599.27,-913.5"/>
</g>
<!-- 24 -->
<g id="node25" class="node">
<title>24</title>
<path fill="none" stroke="#56a2d8" stroke-width="2" d="M1056.5,-252C1056.5,-252 887.5,-252 887.5,-252 881.5,-252 875.5,-246 875.5,-240 875.5,-240 875.5,-228 875.5,-228 875.5,-222 881.5,-216 887.5,-216 887.5,-216 1056.5,-216 1056.5,-216 1062.5,-216 1068.5,-222 1068.5,-228 1068.5,-228 1068.5,-240 1068.5,-240 1068.5,-246 1062.5,-252 1056.5,-252"/>
<text text-anchor="middle" x="972" y="-231.62" font-family="sans" font-size="10.00">LSCM1_Arrange_Assembly_by_RaGOO</text>
</g>
<!-- 24&#45;&gt;0 -->
<g id="edge5" class="edge">
<title>24&#45;&gt;0</title>
<path fill="none" stroke="grey" stroke-width="2" d="M874.71,-227.93C741.37,-220.14 514.86,-203.63 485,-180 474.39,-171.6 449.93,-93.32 436.76,-49.08"/>
<polygon fill="grey" stroke="grey" stroke-width="2" points="439.33,-47.42 433.14,-38.82 432.62,-49.4 439.33,-47.42"/>
</g>
<!-- 30 -->
<g id="node31" class="node">
<title>30</title>
<path fill="none" stroke="#56d0d8" stroke-width="2" d="M725.62,-180C725.62,-180 506.38,-180 506.38,-180 500.38,-180 494.38,-174 494.38,-168 494.38,-168 494.38,-156 494.38,-156 494.38,-150 500.38,-144 506.38,-144 506.38,-144 725.62,-144 725.62,-144 731.62,-144 737.62,-150 737.62,-156 737.62,-156 737.62,-168 737.62,-168 737.62,-174 731.62,-180 725.62,-180"/>
<text text-anchor="middle" x="616" y="-159.62" font-family="sans" font-size="10.00">LSCM1_Clean_PolishedAssembly_by_funannotate</text>
</g>
<!-- 24&#45;&gt;30 -->
<g id="edge52" class="edge">
<title>24&#45;&gt;30</title>
<path fill="none" stroke="grey" stroke-width="2" d="M880.78,-215.06C831.69,-205.41 770.94,-193.46 720.01,-183.45"/>
<polygon fill="grey" stroke="grey" stroke-width="2" points="719.78,-179.45 709.29,-180.95 718.43,-186.31 719.78,-179.45"/>
</g>
<!-- 25 -->
<g id="node26" class="node">
<title>25</title>
<path fill="none" stroke="#61d856" stroke-width="2" d="M1028,-1188C1028,-1188 886,-1188 886,-1188 880,-1188 874,-1182 874,-1176 874,-1176 874,-1164 874,-1164 874,-1158 880,-1152 886,-1152 886,-1152 1028,-1152 1028,-1152 1034,-1152 1040,-1158 1040,-1164 1040,-1164 1040,-1176 1040,-1176 1040,-1182 1034,-1188 1028,-1188"/>
<text text-anchor="middle" x="957" y="-1167.62" font-family="sans" font-size="10.00">LSCM1_pre_RaGOO_Short_reads</text>
</g>
<!-- 25&#45;&gt;24 -->
<g id="edge45" class="edge">
<title>25&#45;&gt;24</title>
<path fill="none" stroke="grey" stroke-width="2" d="M960.11,-1151.13C964.5,-1124.28 972,-1071.87 972,-1027 972,-1027 972,-1027 972,-377 972,-338.65 972,-294.48 972,-265.72"/>
<polygon fill="grey" stroke="grey" stroke-width="2" points="975.5,-265.93 972,-255.93 968.5,-265.93 975.5,-265.93"/>
</g>
<!-- 26&#45;&gt;25 -->
<g id="edge48" class="edge">
<title>26&#45;&gt;25</title>
<path fill="none" stroke="grey" stroke-width="2" d="M942.15,-1295.02C944.96,-1271.54 949.92,-1230.11 953.33,-1201.64"/>
<polygon fill="grey" stroke="grey" stroke-width="2" points="957.15,-1202.18 954.86,-1191.84 950.2,-1201.35 957.15,-1202.18"/>
</g>
<!-- 27 -->
<g id="node28" class="node">
<title>27</title>
<path fill="none" stroke="#56d88a" stroke-width="2" d="M1186.12,-324C1186.12,-324 1011.88,-324 1011.88,-324 1005.88,-324 999.88,-318 999.88,-312 999.88,-312 999.88,-300 999.88,-300 999.88,-294 1005.88,-288 1011.88,-288 1011.88,-288 1186.12,-288 1186.12,-288 1192.12,-288 1198.12,-294 1198.12,-300 1198.12,-300 1198.12,-312 1198.12,-312 1198.12,-318 1192.12,-324 1186.12,-324"/>
<text text-anchor="middle" x="1099" y="-303.62" font-family="sans" font-size="10.00">LSCM1_pre_RaGOO_Polished_Assembly</text>
</g>
<!-- 27&#45;&gt;24 -->
<g id="edge46" class="edge">
<title>27&#45;&gt;24</title>
<path fill="none" stroke="grey" stroke-width="2" d="M1066.62,-287.15C1051.1,-278.6 1032.28,-268.22 1015.52,-258.99"/>
<polygon fill="grey" stroke="grey" stroke-width="2" points="1016.76,-255.57 1006.32,-253.81 1013.39,-261.7 1016.76,-255.57"/>
</g>
<!-- 28&#45;&gt;27 -->
<g id="edge50" class="edge">
<title>28&#45;&gt;27</title>
<path fill="none" stroke="grey" stroke-width="2" d="M1113.95,-359.34C1112.05,-352.67 1109.82,-344.89 1107.68,-337.39"/>
<polygon fill="grey" stroke="grey" stroke-width="2" points="1110.23,-335.56 1104.11,-326.9 1103.5,-337.48 1110.23,-335.56"/>
</g>
<!-- 29 -->
<g id="node30" class="node">
<title>29</title>
<path fill="none" stroke="#d89556" stroke-width="2" d="M1316,-324C1316,-324 1228,-324 1228,-324 1222,-324 1216,-318 1216,-312 1216,-312 1216,-300 1216,-300 1216,-294 1222,-288 1228,-288 1228,-288 1316,-288 1316,-288 1322,-288 1328,-294 1328,-300 1328,-300 1328,-312 1328,-312 1328,-318 1322,-324 1316,-324"/>
<text text-anchor="middle" x="1272" y="-303.62" font-family="sans" font-size="10.00">download_Evidance1</text>
</g>
<!-- 29&#45;&gt;24 -->
<g id="edge47" class="edge">
<title>29&#45;&gt;24</title>
<path fill="none" stroke="grey" stroke-width="2" d="M1215.31,-290.05C1212.5,-289.35 1209.72,-288.66 1207,-288 1161.14,-276.83 1110.04,-265.21 1067.24,-255.71"/>
<polygon fill="grey" stroke="grey" stroke-width="2" points="1067.34,-251.7 1056.82,-252.96 1065.82,-258.54 1067.34,-251.7"/>
</g>
<!-- 30&#45;&gt;0 -->
<g id="edge6" class="edge">
<title>30&#45;&gt;0</title>
<path fill="none" stroke="grey" stroke-width="2" d="M590.08,-143.17C575.52,-133.04 557.1,-120.02 541,-108 513.18,-87.24 482.26,-62.79 459.81,-44.77"/>
<polygon fill="grey" stroke="grey" stroke-width="2" points="461.81,-41.28 451.82,-37.74 457.42,-46.73 461.81,-41.28"/>
</g>
<!-- 31 -->
<g id="node32" class="node">
<title>31</title>
<path fill="none" stroke="#56d8b9" stroke-width="2" d="M658.12,-108C658.12,-108 561.88,-108 561.88,-108 555.88,-108 549.88,-102 549.88,-96 549.88,-96 549.88,-84 549.88,-84 549.88,-78 555.88,-72 561.88,-72 561.88,-72 658.12,-72 658.12,-72 664.12,-72 670.12,-78 670.12,-84 670.12,-84 670.12,-96 670.12,-96 670.12,-102 664.12,-108 658.12,-108"/>
<text text-anchor="middle" x="610" y="-87.62" font-family="sans" font-size="10.00">LSCM1_Final_assembly</text>
</g>
<!-- 30&#45;&gt;31 -->
<g id="edge53" class="edge">
<title>30&#45;&gt;31</title>
<path fill="none" stroke="grey" stroke-width="2" d="M614.49,-143.34C613.92,-136.75 613.26,-129.08 612.63,-121.67"/>
<polygon fill="grey" stroke="grey" stroke-width="2" points="615.88,-121.57 611.53,-111.9 608.9,-122.16 615.88,-121.57"/>
</g>
<!-- 31&#45;&gt;0 -->
<g id="edge7" class="edge">
<title>31&#45;&gt;0</title>
<path fill="none" stroke="grey" stroke-width="2" d="M563.6,-71.15C540.16,-62.14 511.47,-51.11 486.53,-41.51"/>
<polygon fill="grey" stroke="grey" stroke-width="2" points="487.22,-38.26 476.63,-37.93 484.71,-44.79 487.22,-38.26"/>
</g>
</g>
</svg>
